<svg id="visual" viewBox="0 0 960 540" width="960" height="540" xmlns="http://www.w3.org/2000/svg" xmlns:xlink="http://www.w3.org/1999/xlink" version="1.1"><rect x="0" y="0" width="960" height="540" fill="#212529"></rect><path d="M0 383L96 397L192 324L288 325L384 361L480 403L576 365L672 324L768 318L864 372L960 368L960 541L864 541L768 541L672 541L576 541L480 541L384 541L288 541L192 541L96 541L0 541Z" fill="#381e48"></path><path d="M0 371L96 387L192 429L288 414L384 388L480 428L576 388L672 392L768 425L864 380L960 397L960 541L864 541L768 541L672 541L576 541L480 541L384 541L288 541L192 541L96 541L0 541Z" fill="#671e4e"></path><path d="M0 426L96 454L192 394L288 416L384 439L480 411L576 396L672 418L768 421L864 437L960 416L960 541L864 541L768 541L672 541L576 541L480 541L384 541L288 541L192 541L96 541L0 541Z" fill="#912145"></path><path d="M0 445L96 468L192 461L288 486L384 447L480 463L576 441L672 458L768 464L864 481L960 461L960 541L864 541L768 541L672 541L576 541L480 541L384 541L288 541L192 541L96 541L0 541Z" fill="#ae372e"></path><path d="M0 476L96 511L192 513L288 477L384 472L480 495L576 481L672 496L768 480L864 502L960 490L960 541L864 541L768 541L672 541L576 541L480 541L384 541L288 541L192 541L96 541L0 541Z" fill="#b85c00"></path></svg>