<svg id="visual" viewBox="0 0 960 540" width="960" height="540" xmlns="http://www.w3.org/2000/svg" xmlns:xlink="http://www.w3.org/1999/xlink" version="1.1"><rect x="0" y="0" width="960" height="540" fill="#212529"></rect><path d="M0 194L40 213.8C80 233.7 160 273.3 240 295.3C320 317.3 400 321.7 480 316.8C560 312 640 298 720 296C800 294 880 304 920 309L960 314L960 0L920 0C880 0 800 0 720 0C640 0 560 0 480 0C400 0 320 0 240 0C160 0 80 0 40 0L0 0Z" fill="#b85c00" stroke-linecap="round" stroke-linejoin="miter"></path></svg>