<svg id="visual" viewBox="0 0 960 540" width="960" height="540"
	xmlns="http://www.w3.org/2000/svg"
	xmlns:xlink="http://www.w3.org/1999/xlink" version="1.1">
	<rect x="0" y="0" width="960" height="540" fill="#212529"></rect>
	<path d="M0 173L22.8 173.7C45.7 174.3 91.3 175.7 137 176.3C182.7 177 228.3 177 274 183.2C319.7 189.3 365.3 201.7 411.2 197.7C457 193.7 503 173.3 548.8 166C594.7 158.7 640.3 164.3 686 175.5C731.7 186.7 777.3 203.3 823 200.7C868.7 198 914.3 176 937.2 165L960 154L960 0L937.2 0C914.3 0 868.7 0 823 0C777.3 0 731.7 0 686 0C640.3 0 594.7 0 548.8 0C503 0 457 0 411.2 0C365.3 0 319.7 0 274 0C228.3 0 182.7 0 137 0C91.3 0 45.7 0 22.8 0L0 0Z" fill="#381e48"></path>
	<path d="M0 139L22.8 140.2C45.7 141.3 91.3 143.7 137 143.3C182.7 143 228.3 140 274 142.7C319.7 145.3 365.3 153.7 411.2 149.2C457 144.7 503 127.3 548.8 125.7C594.7 124 640.3 138 686 144.5C731.7 151 777.3 150 823 146.3C868.7 142.7 914.3 136.3 937.2 133.2L960 130L960 0L937.2 0C914.3 0 868.7 0 823 0C777.3 0 731.7 0 686 0C640.3 0 594.7 0 548.8 0C503 0 457 0 411.2 0C365.3 0 319.7 0 274 0C228.3 0 182.7 0 137 0C91.3 0 45.7 0 22.8 0L0 0Z" fill="#671e4e"></path>
	<path d="M0 95L22.8 95.8C45.7 96.7 91.3 98.3 137 101.2C182.7 104 228.3 108 274 113C319.7 118 365.3 124 411.2 124C457 124 503 118 548.8 114.3C594.7 110.7 640.3 109.3 686 109.2C731.7 109 777.3 110 823 108.8C868.7 107.7 914.3 104.3 937.2 102.7L960 101L960 0L937.2 0C914.3 0 868.7 0 823 0C777.3 0 731.7 0 686 0C640.3 0 594.7 0 548.8 0C503 0 457 0 411.2 0C365.3 0 319.7 0 274 0C228.3 0 182.7 0 137 0C91.3 0 45.7 0 22.8 0L0 0Z" fill="#912145"></path>
	<path d="M0 81L22.8 77C45.7 73 91.3 65 137 69.2C182.7 73.3 228.3 89.7 274 95.2C319.7 100.7 365.3 95.3 411.2 88C457 80.7 503 71.3 548.8 67.3C594.7 63.3 640.3 64.7 686 67.5C731.7 70.3 777.3 74.7 823 76.8C868.7 79 914.3 79 937.2 79L960 79L960 0L937.2 0C914.3 0 868.7 0 823 0C777.3 0 731.7 0 686 0C640.3 0 594.7 0 548.8 0C503 0 457 0 411.2 0C365.3 0 319.7 0 274 0C228.3 0 182.7 0 137 0C91.3 0 45.7 0 22.8 0L0 0Z" fill="#ae372e"></path>
	<path d="M0 23L22.8 28.5C45.7 34 91.3 45 137 45.3C182.7 45.7 228.3 35.3 274 31.8C319.7 28.3 365.3 31.7 411.2 37.2C457 42.7 503 50.3 548.8 52.3C594.7 54.3 640.3 50.7 686 48.5C731.7 46.3 777.3 45.7 823 45.7C868.7 45.7 914.3 46.3 937.2 46.7L960 47L960 0L937.2 0C914.3 0 868.7 0 823 0C777.3 0 731.7 0 686 0C640.3 0 594.7 0 548.8 0C503 0 457 0 411.2 0C365.3 0 319.7 0 274 0C228.3 0 182.7 0 137 0C91.3 0 45.7 0 22.8 0L0 0Z" fill="#b85c00"></path>
	<path d="M0 365L22.8 364.3C45.7 363.7 91.3 362.3 137 361.7C182.7 361 228.3 361 274 354.8C319.7 348.7 365.3 336.3 411.2 340.3C457 344.3 503 364.7 548.8 372C594.7 379.3 640.3 373.7 686 362.5C731.7 351.3 777.3 334.7 823 337.3C868.7 340 914.3 362 937.2 373L960 384L960 541L937.2 541C914.3 541 868.7 541 823 541C777.3 541 731.7 541 686 541C640.3 541 594.7 541 548.8 541C503 541 457 541 411.2 541C365.3 541 319.7 541 274 541C228.3 541 182.7 541 137 541C91.3 541 45.7 541 22.8 541L0 541Z" fill="#381e48"></path>
	<path d="M0 399L22.8 397.8C45.7 396.7 91.3 394.3 137 394.7C182.7 395 228.3 398 274 395.3C319.7 392.7 365.3 384.3 411.2 388.8C457 393.3 503 410.7 548.8 412.3C594.7 414 640.3 400 686 393.5C731.7 387 777.3 388 823 391.7C868.7 395.3 914.3 401.7 937.2 404.8L960 408L960 541L937.2 541C914.3 541 868.7 541 823 541C777.3 541 731.7 541 686 541C640.3 541 594.7 541 548.8 541C503 541 457 541 411.2 541C365.3 541 319.7 541 274 541C228.3 541 182.7 541 137 541C91.3 541 45.7 541 22.8 541L0 541Z" fill="#671e4e"></path>
	<path d="M0 443L22.8 442.2C45.7 441.3 91.3 439.7 137 436.8C182.7 434 228.3 430 274 425C319.7 420 365.3 414 411.2 414C457 414 503 420 548.8 423.7C594.7 427.3 640.3 428.7 686 428.8C731.7 429 777.3 428 823 429.2C868.7 430.3 914.3 433.7 937.2 435.3L960 437L960 541L937.2 541C914.3 541 868.7 541 823 541C777.3 541 731.7 541 686 541C640.3 541 594.7 541 548.8 541C503 541 457 541 411.2 541C365.3 541 319.7 541 274 541C228.3 541 182.7 541 137 541C91.3 541 45.7 541 22.8 541L0 541Z" fill="#912145"></path>
	<path d="M0 457L22.8 461C45.7 465 91.3 473 137 468.8C182.7 464.7 228.3 448.3 274 442.8C319.7 437.3 365.3 442.7 411.2 450C457 457.3 503 466.7 548.8 470.7C594.7 474.7 640.3 473.3 686 470.5C731.7 467.7 777.3 463.3 823 461.2C868.7 459 914.3 459 937.2 459L960 459L960 541L937.2 541C914.3 541 868.7 541 823 541C777.3 541 731.7 541 686 541C640.3 541 594.7 541 548.8 541C503 541 457 541 411.2 541C365.3 541 319.7 541 274 541C228.3 541 182.7 541 137 541C91.3 541 45.7 541 22.8 541L0 541Z" fill="#ae372e"></path>
	<path d="M0 515L22.8 509.5C45.7 504 91.3 493 137 492.7C182.7 492.3 228.3 502.7 274 506.2C319.7 509.7 365.3 506.3 411.2 500.8C457 495.3 503 487.7 548.8 485.7C594.7 483.7 640.3 487.3 686 489.5C731.7 491.7 777.3 492.3 823 492.3C868.7 492.3 914.3 491.7 937.2 491.3L960 491L960 541L937.2 541C914.3 541 868.7 541 823 541C777.3 541 731.7 541 686 541C640.3 541 594.7 541 548.8 541C503 541 457 541 411.2 541C365.3 541 319.7 541 274 541C228.3 541 182.7 541 137 541C91.3 541 45.7 541 22.8 541L0 541Z" fill="#b85c00"></path>
</svg>